<?xml version="1.0" encoding="UTF-8" standalone="no"?>
<!-- Created with Inkscape (http://www.inkscape.org/) -->
<svg version="1.1" id="svg9" width="636.82532mm" height="235.93289mm" viewBox="0 0 2406.8989 891.71891" sodipodi:docname="ORGM LOGO.svg" inkscape:version="1.2 (dc2aedaf03, 2022-05-15)" xmlns:inkscape="http://www.inkscape.org/namespaces/inkscape" xmlns:sodipodi="http://sodipodi.sourceforge.net/DTD/sodipodi-0.dtd" xmlns:xlink="http://www.w3.org/1999/xlink" xmlns="http://www.w3.org/2000/svg" xmlns:svg="http://www.w3.org/2000/svg">
  <defs id="defs13">
    <linearGradient inkscape:collect="always" id="linearGradient283">
      <stop style="stop-color:#003380;stop-opacity:1" offset="0" id="stop279"/>
      <stop style="stop-color:#5599ff;stop-opacity:1" offset="1" id="stop281"/>
    </linearGradient>
    <linearGradient inkscape:collect="always" xlink:href="#linearGradient283" id="linearGradient277" x1="-1834.963" y1="2408.3889" x2="61.535316" y2="2407.2263" gradientUnits="userSpaceOnUse" gradientTransform="translate(2231.4461,-1779.2588)"/>
  </defs>
  <sodipodi:namedview id="namedview11" pagecolor="#505050" bordercolor="#eeeeee" borderopacity="1" inkscape:pageshadow="0" inkscape:pageopacity="0" inkscape:pagecheckerboard="0" showgrid="false" inkscape:zoom="0.34307206" inkscape:cx="1276.6997" inkscape:cy="889.02605" inkscape:window-width="2560" inkscape:window-height="1369" inkscape:window-x="1912" inkscape:window-y="-8" inkscape:window-maximized="1" inkscape:current-layer="g15" units="mm" height="243mm" inkscape:document-units="mm" inkscape:showpageshadow="2" inkscape:deskcolor="#505050" showguides="true" inkscape:export-bgcolor="#ffffff00"/>
  <g inkscape:groupmode="layer" inkscape:label="Image" id="g15" style="display:inline" transform="translate(-6.134741,-10.067255)">
    <rect style="fill:url(#linearGradient277);fill-opacity:1;fill-rule:evenodd" id="rect159" width="1998.7991" height="563.5957" x="203.15619" y="176.94225" inkscape:export-filename="..\..\..\Users\osmar\OneDrive\Escritorio\LOGO LEMA W.png" inkscape:export-xdpi="300" inkscape:export-ydpi="300"/>
    <path style="fill:#000000;stroke-width:0.81287" d="m 6.1292422,893.60473 c 0,-4.4998 0.3606,-16.1137 0.8014,-25.8086 1.4176,-31.181 3.2125998,-73.91067 4.0868998,-97.28857 0.4682,-12.5182 1.3808,-35.0144 2.0281,-49.9915 0.6472,-14.9772 1.5569,-37.1076 2.0214,-49.1787 0.7944,-20.6419 2.4903,-62.8769 5.2716,-131.2786 0.6635,-16.3183 1.411,-35.1566 1.6612,-41.8628 0.2502,-6.7062 1.5296,-38.1643 2.8432,-69.9068 1.3136,-31.7426 2.9527,-72.3455 3.6426,-90.2287 0.6898,-17.8831 1.6161,-40.928 2.0585,-51.2108 0.4423,-10.2828 1.3458,-32.4132 2.0076,-49.1787 1.6252,-41.1676 2.7973,-51.3165 8.1965,-70.9691 6.9873,-25.4337 13.8514,-40.6396 28.6918,-63.5609 21.6928,-33.504905 58.110698,-63.052105 96.011798,-77.897805 18.2136,-7.1342 36.1422,-11.7928 53.4124,-13.879 9.7799,-1.1813 108.0291,-1.2969 1102.45566,-1.2969 h 1091.7189 l -0.01,7.9255 c -0.01,4.359 -0.5411,19.9966 -1.1927,34.7502 -0.6517,14.7536 -1.5686,37.4327 -2.0377,50.398005 -0.469,12.9653 -1.2108,31.8035 -1.6483,41.8628 -0.4376,10.0593 -1.1672,28.7147 -1.6212,41.4564 -1.7753,49.8131 -19.5128,495.5928 -20.3444,511.2955 -2.5987,49.0719 -17.7697,89.7949 -47.0896,126.4013 -33.3021,41.57847 -84.344,69.75317 -138.35,76.36827 -9.2537,1.1335 -120.6212,1.2609 -1102.4556,1.2609 H 6.1292422 Z M 860.45614,601.83056 v -82.9192 l 48.56521,0.2096 48.5652,0.2096 50.96645,80.8806 c 28.0315,44.4844 51.0965,81.2102 51.2555,81.6129 0.1605,0.4063 16.7318,1.0131 37.2338,1.3632 20.3196,0.3469 45.6481,0.8531 56.2856,1.1247 l 19.3407,0.494 -4.0918,-5.515 c -2.2505,-3.0332 -12.3913,-17.2203 -22.535,-31.5268 -10.1437,-14.3066 -31.1258,-43.7528 -46.6268,-65.4361 -36.9053,-51.6242 -50.501,-70.8763 -50.2068,-71.0954 0.1321,-0.098 3.1667,-1.7708 6.7433,-3.7163 25.6046,-13.9278 48.8108,-37.9573 62.3822,-64.5956 11.2461,-22.0744 15.9121,-40.6739 16.6194,-66.2489 0.6044,-21.8536 -0.9332,-33.3227 -7.2294,-53.9278 -3.1558,-10.3276 -13.7684,-31.3706 -20.6606,-40.9663 -18.2558,-25.4166 -44.0319,-45.5336 -71.1582,-55.5354 l -6.4826,-2.3902 H 896.97985 764.53744 v 44.7079 44.7079 l 132.70101,4e-4 132.70115,5e-4 4.4913,5.08 c 9.9116,11.2107 14.7835,19.7052 18.2983,31.9047 8.1478,28.2792 0.9114,57.7251 -19.427,79.0516 l -3.2946,3.4547 H 897.27245 764.53744 v 125.995 125.9949 h 47.9593 47.9594 z m 947.80696,-0.8065 v -83.7256 l -48.569,-10e-5 h -48.569 l 0.2108,83.7257 0.2108,83.7257 h 48.3582 48.3582 z m 347.0957,-146.7231 v -230.4488 l -48.569,0.047 -48.569,0.047 -31.4174,48.5222 c -71.7051,110.744 -83.0411,128.2143 -83.604,128.8446 -0.4414,0.4942 -89.3581,-135.5483 -112.5823,-172.2508 l -3.2515,-5.1385 -62.0432,-0.036 -62.0432,-0.036 1.7155,2.2354 c 5.5556,7.2393 9.8875,12.9941 21.7443,28.8874 7.267,9.7407 15.9559,21.2631 19.3086,25.6054 3.3528,4.3422 13.888,18.3201 23.4117,31.0618 9.5237,12.7417 27.7181,36.884 40.432,53.6494 12.714,16.7655 25.6877,33.95 28.8304,38.1879 3.1428,4.2379 15.3577,20.5156 27.1442,36.1727 76.4143,101.5081 76.8408,102.062 77.7983,101.0231 0.5186,-0.5626 26.1025,-39.0653 56.853,-85.5615 30.7507,-46.4962 56.4052,-85.0741 57.0101,-85.7288 0.9249,-1.0009 1.0999,23.9887 1.0999,157.0872 v 158.2775 h 48.3658 48.3658 z M 444.26644,640.10916 v -43.8276 l -3.8611,-0.8166 c -2.1237,-0.4491 -5.3244,-1.066 -7.1127,-1.3708 -9.9018,-1.6879 -30.3111,-9.5807 -41.398,-16.0099 -30.068,-17.4361 -52.516,-44.6247 -63.7548,-77.2185 -9.7801,-28.3633 -10.2195,-61.4631 -1.1902,-89.6469 12.6662,-39.5358 42.0951,-71.931 79.99,-88.0527 8.4943,-3.6138 21.2116,-7.7944 26.353,-8.6632 1.7883,-0.3021 4.989,-0.9169 7.1127,-1.366 l 3.8611,-0.8166 v -43.9158 -43.9157 l -1.829,0.4319 c -1.0059,0.2375 -4.7553,0.6803 -8.3319,0.9838 -7.8106,0.6629 -24.4324,4.1642 -36.6346,7.7168 -27.9773,8.1456 -58.5652,24.2597 -80.0123,42.1514 -7.4368,6.2039 -23.3991,22.0255 -29.6278,29.3665 -29.7062,35.0112 -47.0612,74.6222 -53.4221,121.9305 -0.5992,4.4561 -1.0383,15.9738 -1.0383,27.2312 0,25.5391 2.6361,44.6233 9.0388,65.4361 12.5347,40.7458 30.6112,70.4868 60.533,99.5944 11.6718,11.3543 16.2635,15.2765 26.303,22.4676 33.1761,23.7636 72.1206,38.1255 114.0051,42.0428 0.8015,0.075 1.0161,-9.1617 1.0161,-43.7327 z m 957.56146,-0.013 c 0,-41.051 -0.091,-43.8668 -1.4225,-44.2592 -0.7824,-0.2305 -3.8002,-0.8187 -6.7062,-1.3072 -21.2578,-3.5733 -48.0293,-16.8 -65.7573,-32.488 -28.4769,-25.2 -44.5796,-56.3721 -48.7996,-94.4674 -1.1588,-10.4613 -1.0888,-17.0171 0.3067,-28.7184 4.4034,-36.9219 20.517,-67.5955 48.4841,-92.2936 17.7875,-15.7085 43.5893,-28.4332 65.7661,-32.4343 2.906,-0.5242 5.9238,-1.1399 6.7062,-1.3681 1.3321,-0.3885 1.4225,-3.2051 1.4225,-44.3099 0,-41.4192 -0.081,-43.8718 -1.4225,-43.4845 -0.7824,0.2257 -4.3489,0.6525 -7.9255,0.9483 -21.2446,1.7573 -50.946,10.8978 -75.0686,23.1021 -21.6039,10.9299 -36.676,21.7464 -56.6164,40.6307 -27.4234,25.9708 -50.0783,63.6367 -60.4387,100.485 -6.2806,22.338 -8.2656,35.7034 -8.806,59.2917 -0.4587,20.0221 0.8052,34.3358 4.6708,52.8996 6.3145,30.3243 20.7796,62.9166 38.5741,86.9141 24.4825,33.0165 49.0728,53.6472 85.6462,71.8545 25.116,12.5036 51.3011,19.9143 80.3705,22.7459 0.8016,0.078 1.0161,-9.1582 1.0161,-43.7413 z m -904.10646,41.758 c 33.1158,-5.3103 62.0908,-15.9958 87.578,-32.2973 34.5279,-22.0839 59.6705,-48.6318 79.0675,-83.4866 16.7647,-30.1248 25.8159,-60.7791 28.6815,-97.138 3.2485,-41.2157 -7.1224,-87.1124 -28.5916,-126.5336 -17.6664,-32.4386 -45.3102,-61.8565 -77.0332,-81.9773 -15.4284,-9.7857 -37.9786,-20.3646 -53.6894,-25.1872 -15.6477,-4.8031 -38.3623,-9.7296 -44.9632,-9.7518 -1.3372,0 -1.4225,2.6248 -1.4225,43.8747 v 43.8795 l 2.2354,0.5088 c 23.7759,5.412 40.152,12.6291 58.6026,25.8267 8.8295,6.3157 23.7011,21.1295 29.5226,29.4079 5.8158,8.2703 13.4505,20.864 15.5042,25.5746 2.8775,6.6002 7.7206,21.4001 9.4431,28.8569 6.714,29.0665 3.3264,62.2403 -9.1059,89.1721 -15.4547,33.4787 -40.0298,57.8782 -72.8743,72.3535 -8.1885,3.6088 -21.6519,8.0818 -27.6376,9.1821 -6.3075,1.1594 -5.6901,-3.7409 -5.6901,45.1642 0,38.566 0.1478,43.8402 1.2281,43.8402 0.6754,0 4.7906,-0.5713 9.1448,-1.2694 z m 958.66166,0.076 c 40.25,-5.6501 82.7879,-25.0066 114.1154,-51.9273 18.5365,-15.9289 38.2391,-39.0923 48.5031,-57.0228 20.949,-36.5961 30.5462,-69.3094 32.7905,-111.7697 0.4808,-9.0953 -0.393,-27.9146 -1.7266,-37.1888 l -0.4967,-3.4547 h -118.9932 -118.9933 v 39.4242 39.4242 h 72.7519 c 40.0136,0 72.752,0.1734 72.752,0.3853 0,1.0438 -5.2443,13.3867 -8.1064,19.0791 -5.7577,11.4515 -14.6956,24.3658 -22.7187,32.8263 -5.507,5.8072 -18.4179,16.8454 -24.4422,20.8968 -12.5795,8.4601 -35.3253,18.375 -48.3737,21.0862 -2.2354,0.4645 -4.8874,1.0316 -5.8933,1.2603 l -1.829,0.4157 v 43.8795 c 0,35.9019 0.196,43.8795 1.0778,43.8795 0.5928,0 4.9049,-0.5372 9.5824,-1.1938 z m 178.7866,-314.0813 c -13.1697,-32.567 -35.4409,-63.7166 -62.2326,-87.0415 -28.7684,-25.0458 -59.5408,-40.7786 -99.4247,-50.832 -7.4562,-1.8795 -22.5316,-4.4424 -26.367,-4.4825 -1.3374,-0.014 -1.4225,2.6101 -1.4225,43.8488 v 43.8636 l 3.0483,0.7774 c 1.6765,0.4276 4.3285,1.016 5.8933,1.3075 8.4682,1.5778 29.2575,9.9029 38.2049,15.2992 17.5529,10.5864 34.111,25.4621 43.853,39.3975 l 5.2418,7.4979 h 48.5511 48.551 z" id="path117" inkscape:export-filename="G:\Shared drives\ORGM - ADM\ADMINISTRACIÓN\LOGO\LOGO LEMA W.png" inkscape:export-xdpi="96" inkscape:export-ydpi="96"/>
  </g>
</svg>